<svg width="40" height="40" viewBox="0 0 40 40" fill="none" xmlns="http://www.w3.org/2000/svg">
<path d="M3.33332 14.99C3.33244 13.677 3.59057 12.3767 4.09293 11.1637C4.59529 9.95056 5.332 8.84848 6.2609 7.92052C7.18979 6.99256 8.29261 6.25694 9.5062 5.7558C10.7198 5.25465 12.0203 4.99782 13.3333 5.00001H26.6667C32.1883 5.00001 36.6667 9.49168 36.6667 14.99V35H13.3333C7.81165 35 3.33332 30.5083 3.33332 25.01V14.99ZM33.3333 31.6667V14.99C33.3289 13.2242 32.6248 11.5321 31.3752 10.2844C30.1256 9.03668 28.4325 8.33511 26.6667 8.33335H13.3333C12.4581 8.33115 11.591 8.50176 10.7818 8.83539C9.97264 9.16902 9.23728 9.6591 8.61792 10.2775C7.99855 10.896 7.50737 11.6306 7.17252 12.4393C6.83768 13.2479 6.66577 14.1148 6.66665 14.99V25.01C6.67106 26.7758 7.37517 28.468 8.62475 29.7157C9.87432 30.9634 11.5675 31.6649 13.3333 31.6667H33.3333ZM23.3333 18.3333H26.6667V21.6667H23.3333V18.3333ZM13.3333 18.3333H16.6666V21.6667H13.3333V18.3333Z" fill="white"/>
<path d="M3.33332 14.99C3.33244 13.677 3.59057 12.3767 4.09293 11.1637C4.59529 9.95056 5.332 8.84848 6.2609 7.92052C7.18979 6.99256 8.29261 6.25694 9.5062 5.7558C10.7198 5.25465 12.0203 4.99782 13.3333 5.00001H26.6667C32.1883 5.00001 36.6667 9.49168 36.6667 14.99V35H13.3333C7.81165 35 3.33332 30.5083 3.33332 25.01V14.99ZM33.3333 31.6667V14.99C33.3289 13.2242 32.6248 11.5321 31.3752 10.2844C30.1256 9.03668 28.4325 8.33511 26.6667 8.33335H13.3333C12.4581 8.33115 11.591 8.50176 10.7818 8.83539C9.97264 9.16902 9.23728 9.6591 8.61792 10.2775C7.99855 10.896 7.50737 11.6306 7.17252 12.4393C6.83768 13.2479 6.66577 14.1148 6.66665 14.99V25.01C6.67106 26.7758 7.37517 28.468 8.62475 29.7157C9.87432 30.9634 11.5675 31.6649 13.3333 31.6667H33.3333ZM23.3333 18.3333H26.6667V21.6667H23.3333V18.3333ZM13.3333 18.3333H16.6666V21.6667H13.3333V18.3333Z" fill="url(#paint0_linear_4442_1266)"/>
<defs>
<linearGradient id="paint0_linear_4442_1266" x1="20" y1="5" x2="20" y2="35" gradientUnits="userSpaceOnUse">
<stop stop-color="white"/>
<stop offset="1" stop-color="white" stop-opacity="0"/>
</linearGradient>
</defs>
</svg>
