<svg width="24" height="24" viewBox="0 0 24 24" fill="none" xmlns="http://www.w3.org/2000/svg">
<path d="M15.2727 11.1429C16.6309 11.1429 17.7191 9.99429 17.7191 8.57143C17.7191 7.14857 16.6309 6 15.2727 6C13.9145 6 12.8182 7.14857 12.8182 8.57143C12.8182 9.99429 13.9145 11.1429 15.2727 11.1429ZM8.72727 11.1429C10.0855 11.1429 11.1736 9.99429 11.1736 8.57143C11.1736 7.14857 10.0855 6 8.72727 6C7.36909 6 6.27273 7.14857 6.27273 8.57143C6.27273 9.99429 7.36909 11.1429 8.72727 11.1429ZM8.72727 12.8571C6.82091 12.8571 3 13.86 3 15.8571V18H14.4545V15.8571C14.4545 13.86 10.6336 12.8571 8.72727 12.8571ZM15.2727 12.8571C15.0355 12.8571 14.7655 12.8743 14.4791 12.9C15.4282 13.62 16.0909 14.5886 16.0909 15.8571V18H21V15.8571C21 13.86 17.1791 12.8571 15.2727 12.8571Z" fill="#243443"/>
</svg>
