<svg width="24" height="24" viewBox="0 0 24 24" fill="none" xmlns="http://www.w3.org/2000/svg">
<path d="M21.6329 12.7835C21.3976 12.5458 21.0792 12.4124 20.7474 12.4124C20.4155 12.4124 20.0972 12.5458 19.8619 12.7835L13.8895 18.8301C12.8607 19.8732 11.4665 20.4597 10.0126 20.4611C8.55859 20.4625 7.16335 19.8787 6.13257 18.8375C5.1018 17.7964 4.51954 16.3828 4.51338 14.9065C4.50723 13.4303 5.07768 12.0118 6.09974 10.9618L12.4932 4.50023C13.1053 3.88344 13.9327 3.53733 14.7951 3.53733C15.6575 3.53733 16.485 3.88344 17.0971 4.50023C17.6978 5.10735 18.0395 5.92973 18.0488 6.79023C18.0581 7.65072 17.7341 8.48049 17.1466 9.1008L10.7052 15.6127C10.5156 15.8018 10.2604 15.9077 9.99463 15.9077C9.72885 15.9077 9.47369 15.8018 9.28408 15.6127C9.10105 15.4241 8.99844 15.1701 8.99844 14.9054C8.99844 14.6406 9.10105 14.3866 9.28408 14.1981L15.258 8.14202C15.492 7.90342 15.6233 7.58044 15.6233 7.24375C15.6233 6.90706 15.492 6.58408 15.258 6.34549C15.1423 6.22602 15.0042 6.13124 14.8518 6.06673C14.6995 6.00222 14.536 5.96927 14.371 5.96983C14.2071 5.96908 14.0448 6.00134 13.8933 6.06474C13.7419 6.12815 13.6043 6.22143 13.4886 6.3392L7.52085 12.3811C7.19558 12.7113 6.93756 13.1034 6.76153 13.5349C6.58549 13.9664 6.49489 14.4289 6.49489 14.8959C6.49489 15.363 6.58549 15.8254 6.76153 16.2569C6.93756 16.6884 7.19558 17.0805 7.52085 17.4108C7.84612 17.741 8.23227 18.003 8.65725 18.1817C9.08223 18.3604 9.53773 18.4524 9.99773 18.4524C10.4577 18.4524 10.9132 18.3604 11.3382 18.1817C11.7632 18.003 12.1493 17.741 12.4746 17.4108L18.8696 10.9476C19.4046 10.4072 19.8291 9.7648 20.1188 9.05728C20.4085 8.34977 20.5576 7.5911 20.5576 6.82488C20.5576 6.05866 20.4085 5.29999 20.1188 4.59247C19.8291 3.88495 19.4046 3.24253 18.8696 2.70212C17.7882 1.61186 16.3261 1 14.8021 1C13.2781 1 11.816 1.61186 10.7346 2.70212L4.33496 9.16839C3.21872 10.3029 2.45907 11.7481 2.15216 13.3211C1.84524 14.8941 2.00486 16.5243 2.61082 18.0051C3.21677 19.486 4.24181 20.7511 5.5562 21.6402C6.87059 22.5294 8.41524 23.0026 9.99463 23C11.0453 23.0024 12.0861 22.7945 13.0575 22.388C14.029 21.9816 14.9119 21.3846 15.6558 20.6313L21.6313 14.5879C21.8671 14.3487 21.9997 14.0243 22 13.686C22.0003 13.3476 21.8682 13.023 21.6329 12.7835Z" fill="#377DFF"/>
</svg>
