<svg width="24" height="24" viewBox="0 0 24 24" fill="none" xmlns="http://www.w3.org/2000/svg">
<path d="M15.3867 7.375H20.125V18.625H3.875V7.375H8.61328L9.55078 4.875H14.4531L15.3867 7.375ZM14.668 3H9.55078C8.76953 3 8.07031 3.48437 7.79688 4.21484L7.3125 5.5H3.875C2.83984 5.5 2 6.33984 2 7.375V18.625C2 19.6602 2.83984 20.5 3.875 20.5H20.125C21.1602 20.5 22 19.6602 22 18.625V7.375C22 6.33984 21.1602 5.5 20.125 5.5H16.6875L16.1289 4.01562C15.9023 3.40234 15.3203 3 14.668 3ZM12 17.6875C9.41406 17.6875 7.3125 15.5859 7.3125 13C7.3125 10.4141 9.41406 8.3125 12 8.3125C14.5859 8.3125 16.6875 10.4141 16.6875 13C16.6875 15.5859 14.5859 17.6875 12 17.6875ZM12 10.1875C10.4492 10.1875 9.1875 11.4492 9.1875 13C9.1875 14.5508 10.4492 15.8125 12 15.8125C13.5508 15.8125 14.8125 14.5508 14.8125 13C14.8125 11.4492 13.5508 10.1875 12 10.1875Z" fill="#377DFF"/>
</svg>
