<svg width="24" height="24" viewBox="0 0 24 24" fill="none" xmlns="http://www.w3.org/2000/svg">
<path fill-rule="evenodd" clip-rule="evenodd" d="M3.79079 5.12413C3.4226 4.75593 3.4226 4.15898 3.79079 3.79079C4.15898 3.4226 4.75593 3.4226 5.12413 3.79079L11.9999 10.6666L18.8758 3.79079C19.2439 3.4226 19.8409 3.4226 20.2091 3.79079C20.5773 4.15898 20.5773 4.75593 20.2091 5.12413L13.3333 11.9999L20.2091 18.8758C20.5773 19.2439 20.5773 19.8409 20.2091 20.2091C19.8409 20.5773 19.2439 20.5773 18.8758 20.2091L11.9999 13.3333L5.12413 20.2091C4.75593 20.5773 4.15898 20.5773 3.79079 20.2091C3.4226 19.8409 3.4226 19.2439 3.79079 18.8758L10.6666 11.9999L3.79079 5.12413Z" fill="white"/>
<path fill-rule="evenodd" clip-rule="evenodd" d="M3.79079 5.12413C3.4226 4.75593 3.4226 4.15898 3.79079 3.79079C4.15898 3.4226 4.75593 3.4226 5.12413 3.79079L11.9999 10.6666L18.8758 3.79079C19.2439 3.4226 19.8409 3.4226 20.2091 3.79079C20.5773 4.15898 20.5773 4.75593 20.2091 5.12413L13.3333 11.9999L20.2091 18.8758C20.5773 19.2439 20.5773 19.8409 20.2091 20.2091C19.8409 20.5773 19.2439 20.5773 18.8758 20.2091L11.9999 13.3333L5.12413 20.2091C4.75593 20.5773 4.15898 20.5773 3.79079 20.2091C3.4226 19.8409 3.4226 19.2439 3.79079 18.8758L10.6666 11.9999L3.79079 5.12413Z" fill="url(#paint0_linear_4494_910)"/>
<defs>
<linearGradient id="paint0_linear_4494_910" x1="11.9999" y1="3.51465" x2="11.9999" y2="20.4852" gradientUnits="userSpaceOnUse">
<stop stop-color="white"/>
<stop offset="1" stop-color="white" stop-opacity="0"/>
</linearGradient>
</defs>
</svg>
