<svg width="40" height="40" viewBox="0 0 40 40" fill="none" xmlns="http://www.w3.org/2000/svg">
<path d="M20 22.25C25.5898 22.25 30.125 17.7148 30.125 12.125C30.125 6.53516 25.5898 2 20 2C14.4102 2 9.875 6.53516 9.875 12.125C9.875 17.7148 14.4102 22.25 20 22.25ZM29 24.5H25.1258C23.5648 25.2172 21.8281 25.625 20 25.625C18.1719 25.625 16.4422 25.2172 14.8742 24.5H11C6.02891 24.5 2 28.5289 2 33.5V34.625C2 36.4883 3.51172 38 5.375 38H34.625C36.4883 38 38 36.4883 38 34.625V33.5C38 28.5289 33.9711 24.5 29 24.5Z" fill="#AAB0B7"/>
</svg>
